<svg xmlns="http://www.w3.org/2000/svg" width="240" height="75" viewBox="0 0 1778.61 552.54" xmlns:xlink="http://www.w3.org/1999/xlink" shape-rendering="geometricPrecision" text-rendering="geometricPrecision" image-rendering="optimizeQuality" fill-rule="evenodd" clip-rule="evenodd"><defs><linearGradient id="d" gradientUnits="userSpaceOnUse" x1="795.39" y1="268.66" x2="795.4" y2="115.7"><stop offset="0" stop-color="#02376c"/><stop offset="1" stop-color="#1d68a4"/></linearGradient><linearGradient id="a" gradientUnits="userSpaceOnUse" x1="1641.76" y1="444.19" x2="1639.63" y2="270.43"><stop offset="0" stop-color="#f56600"/><stop offset="1" stop-color="#ffcc29"/></linearGradient><linearGradient id="c" gradientUnits="userSpaceOnUse" x1="185.47" y1="357.77" x2="707.67" y2="120.41"><stop offset="0" stop-color="#032052"/><stop offset="1" stop-color="#0098da"/></linearGradient><linearGradient id="b" gradientUnits="userSpaceOnUse" xlink:href="#a" x1="-.98" y1="361.18" x2="207.24" y2="292.47"/></defs><path d="M14.96 181.57c41.06 13.78 96.86 19.13 136.13 21.59C154.4 125.36 184.54 51.59 225.05 0c-22.73 5.06-47.84 14.7-68.86 25.15C85.6 60.24 39.82 118.13 14.96 181.57zM.2 263.41c39.12 13.87 115.88 23.57 161.68 25.4C183.02 427 320.67 517.58 373.93 530.39 205.25 606.21-7.5 480.08.2 263.41z" fill="url(#b)"/><path d="M317.34.91c-32.52 45.4-62.46 117.83-61.44 195.13 85.24-15.28 163.11-51.75 228.02-103.73C446.1 48.9 382.9 10.47 317.34.91zm204.03 138.35C427.94 231.25 343.63 261.06 266.43 277c30.82 136.87 123.38 214.92 187.52 249.16 120.97-103.05 122.73-267.83 67.42-386.9z" fill="url(#c)"/><path d="M690.18 272.12h52.29V159.94h46.04V115.7H644.15v44.24h46.03v112.18zm953.91 0h134.52v-42.9h-83.13v-16.99h76.43v-37.76h-76.43V158.6h82.02v-42.9h-133.41v156.42zm-162.42 0h58.1c63.24 0 94.98-32.85 94.98-79.1v-.45c0-46.26-31.07-76.87-93.19-76.87h-59.89v156.42zm52.29-45.58v-65.26h8.72c23.91 0 39.33 9.84 39.33 32.41v.44c0 22.57-15.42 32.41-39.33 32.41h-8.72zm-226.94 45.58h55.86l8.05-21h54.75l8.27 21h42.44v-34.21l-51.61-123.33h-51.84l-65.92 157.54zm77.09-58.1l14.3-37.99 14.31 37.99h-28.61zm-209.02 58.1h58.1c63.24 0 94.98-32.85 94.98-79.1v-.45c0-46.26-31.07-76.87-93.19-76.87h-59.89v156.42zm52.29-45.58v-65.26h8.72c23.91 0 39.33 9.84 39.33 32.41v.44c0 22.57-15.42 32.41-39.33 32.41h-8.72zm-216.35 45.58h51.84v-72.18l58.1 72.18h46.49V115.7h-51.85v69.05l-55.64-69.05h-48.94v156.42zm-60.38 0h52.29V115.7h-52.29v156.42zm-155.26 0h52.29v-44.69h11.17l29.5 44.69h59.66l-36.42-53.18c18.99-9.16 30.84-25.03 30.84-47.82v-.45c0-16.09-4.92-27.71-14.3-37.1-10.95-10.95-28.61-17.87-56.32-17.87h-76.42v156.42zm52.29-82.01V159.5h22.79c12.07 0 19.89 4.91 19.89 14.97v.44c0 9.62-7.6 15.2-20.11 15.2h-22.57z" fill="url(#d)"/><path d="M644.15 441.31h46.29v-64.46l51.89 64.46h41.5V301.62h-46.29v61.67l-49.69-61.67h-43.7v139.69zm934.71 2.6c37.52 0 61.67-17.97 61.67-47.3v-.4c0-28.14-23.95-38.51-59.67-45.1-14.77-2.79-18.56-5.19-18.56-8.98v-.4c0-3.39 3.19-5.78 10.18-5.78 12.97 0 28.73 4.19 41.91 13.77l22.74-31.53c-16.16-12.78-36.12-19.16-63.05-19.16-38.52 0-59.27 20.55-59.27 47.09v.4c0 29.54 27.53 38.52 58.87 44.9 14.96 2.99 19.35 5.19 19.35 9.18v.4c0 3.79-3.59 5.99-11.97 5.99-16.37 0-33.73-4.79-48.89-16.36l-24.95 29.73c17.76 15.56 43.31 23.55 71.64 23.55zm-227.89-2.6h49.89l7.18-18.76h48.9l7.38 18.76h50.69l-58.87-140.69h-46.3l-58.87 140.69zm68.85-51.88l12.77-33.93 12.77 33.93h-25.54zm-121.73 51.88h46.69V301.62h-46.69v139.69zm-75.43 3c34.72 0 54.28-16.97 66.05-37.72l-38.51-21.75c-5.79 10.37-13.18 17.56-26.35 17.56-15.36 0-26.14-12.77-26.14-30.93v-.4c0-16.76 10.38-30.54 26.14-30.54 12.78 0 20.16 6.99 25.35 16.97l38.51-22.55c-11.77-21.35-32.53-36.32-63.26-36.32-41.7 0-74.23 31.13-74.23 72.84v.4c0 43.3 33.72 72.44 72.44 72.44zm-132.31-3h46.7V301.62h-46.7v139.69zm-.01-144.53h46.69l.01-17.79-46.7 17.79zm-98.77 144.53h46.7V341.14h41.11v-39.52H950.46v39.52h41.11v100.17zm-118.93 3c43.1 0 76.43-32.33 76.43-72.84v-.4c0-40.51-32.93-72.44-76.03-72.44-43.11 0-76.44 32.33-76.44 72.84v.4c0 40.5 32.93 72.44 76.04 72.44zm.4-41.31c-17.96 0-29.34-14.97-29.34-31.53v-.4c0-16.36 11.18-31.13 28.94-31.13 17.96 0 29.33 14.96 29.33 31.53v.4c0 16.36-11.17 31.13-28.93 31.13z" fill="url(#a)"/></svg>